<svg fill="#6DC535" id="Layer_1" enable-background="new 0 0 100 100" height="512" viewBox="0 0 100 100" width="512" xmlns="http://www.w3.org/2000/svg"><path d="m89 10h-78c-.5527344 0-1 .4472656-1 1v27.3925781c0 .5527344.4472656 1 1 1h78c.5527344 0 1-.4472656 1-1v-27.3925781c0-.5527344-.4472656-1-1-1zm-1 27.3925781h-76v-25.3925781h76z"/><path d="m19 29.6777344h13.8164062c.5527344 0 1-.4472656 1-1v-7.9628906c0-.5527344-.4472656-1-1-1h-13.8164062c-.5527344 0-1 .4472656-1 1v7.9628906c0 .5527344.4472656 1 1 1zm1-7.9628906h11.8164062v5.9628906h-11.8164062z"/><path d="m43.0917969 29.6777344h13.8164062c.5527344 0 1-.4472656 1-1v-7.9628906c0-.5527344-.4472656-1-1-1h-13.8164062c-.5527344 0-1 .4472656-1 1v7.9628906c0 .5527344.4472656 1 1 1zm1-7.9628906h11.8164062v5.9628906h-11.8164062z"/><path d="m67.1835938 29.6777344h13.8164062c.5527344 0 1-.4472656 1-1v-7.9628906c0-.5527344-.4472656-1-1-1h-13.8164062c-.5527344 0-1 .4472656-1 1v7.9628906c0 .5527344.4472656 1 1 1zm1-7.9628906h11.8164062v5.9628906h-11.8164062z"/><path d="m32.0683594 44.2890625h-12.3203125c-.5527344 0-1 .4472656-1 1v8.4599609h-1.4570312c-.5527344 0-1 .4472656-1 1v22.1376953c-.0000001 1.7167969 1.3974609 3.1132813 3.1142577 3.1132813h5.5029297v9c0 .5527344.4472656 1 1 1s1-.4472656 1-1v-9h5.5039062c1.7167969 0 3.1132812-1.3964844 3.1132812-3.1132812v-22.1376954c0-.5527344-.4472656-1-1-1h-1.4570312v-8.4599609c.0000001-.5527344-.4472655-1-.9999999-1zm-11.3203125 2h10.3203125v7.4599609h-10.3203125zm11.6640625 31.7109375h-13.006836c-.6142578 0-1.1142578-.4990234-1.1142578-1.1132812v-7.9541016h15.234375v7.9541016c0 .6142578-.4990234 1.1132812-1.1132812 1.1132812zm1.1132812-11.0673828h-15.234375v-11.1835938h15.234375z"/><path d="m56.1601562 44.2890625h-12.3203124c-.5527344 0-1 .4472656-1 1v8.4599609h-1.4570312c-.5527344 0-1 .4472656-1 1v22.1376953c-.0000001 1.7167969 1.3964843 3.1132813 3.1132812 3.1132813h5.5039062v9c0 .5527344.4472656 1 1 1s1-.4472656 1-1v-9h5.5039062c1.7167969 0 3.1132812-1.3964844 3.1132812-3.1132812v-22.1376954c0-.5527344-.4472656-1-1-1h-1.4570312v-8.4599609c0-.5527344-.4472656-1-1-1zm-11.3203124 2h10.3203125v7.4599609h-10.3203125zm11.6640624 31.7109375h-13.0078124c-.6142578 0-1.1132812-.4990234-1.1132812-1.1132812v-7.9541016h15.234375v7.9541016c-.0000001.6142578-.4990235 1.1132812-1.1132814 1.1132812zm1.1132813-11.0673828h-15.234375v-11.1835938h15.234375z"/><path d="m80.2519531 44.2890625h-12.3203125c-.5527344 0-1 .4472656-1 1v8.4599609h-1.4570312c-.5527344 0-1 .4472656-1 1v22.1376953c0 1.7167969 1.3964844 3.1132813 3.1132812 3.1132813h5.5039062v9c0 .5527344.4472656 1 1 1s1-.4472656 1-1v-9h5.5029297c1.7167969 0 3.1142578-1.3964844 3.1142578-3.1132812v-22.1376954c0-.5527344-.4472656-1-1-1h-1.4570312v-8.4599609c0-.5527344-.4472656-1-1-1zm-11.3203125 2h10.3203125v7.4599609h-10.3203125zm11.663086 31.7109375h-13.006836c-.6142578 0-1.1132812-.4990234-1.1132812-1.1132812v-7.9541016h15.234375v7.9541016c0 .6142578-.5 1.1132812-1.1142578 1.1132812zm1.1142578-11.0673828h-15.234375v-11.1835938h15.234375z"/></svg>