<?xml version="1.0"?>
<svg fill="#6DC535" xmlns="http://www.w3.org/2000/svg" viewBox="0 0 64 64"><g id="line_cp"><path d="M29,20V6a1,1,0,0,0-1-1H6A1,1,0,0,0,5,6V20a1,1,0,0,0,1,1H28A1,1,0,0,0,29,20Zm-2-1H7V7H27Z"/><path d="M59,10H57.816A3,3,0,0,0,55,8H48.889a9.044,9.044,0,0,0-4.026.95L40.764,11A4.974,4.974,0,0,0,38,15.472V29a1,1,0,0,0,1,1h4V46.5a13.5,13.5,0,0,1-27,0V40H27a5.006,5.006,0,0,0,5-5V7a5.006,5.006,0,0,0-5-5H7A5.006,5.006,0,0,0,2,7V35a5.006,5.006,0,0,0,5,5h7v6.5a15.5,15.5,0,0,0,31,0V30a1,1,0,0,0,1-1V22.618l.863.432a9.044,9.044,0,0,0,4.026.95H55a3,3,0,0,0,2.816-2H59a3,3,0,0,0,3-3V13A3,3,0,0,0,59,10ZM4,35V7A3,3,0,0,1,7,4H27a3,3,0,0,1,3,3V35a3,3,0,0,1-3,3H7A3,3,0,0,1,4,35ZM55,22H50.889a7.044,7.044,0,0,1-3.131-.739l-2.311-1.156A1,1,0,0,0,44,21v7H40V15.472a2.986,2.986,0,0,1,1.658-2.683l4.1-2.05A7.044,7.044,0,0,1,48.889,10H55a1,1,0,0,1,1,1V21A1,1,0,0,1,55,22Zm5-3a1,1,0,0,1-1,1H58V12h1a1,1,0,0,1,1,1Z"/><path d="M24,30a7,7,0,1,0-7,7A7.009,7.009,0,0,0,24,30ZM12,30a5,5,0,1,1,5,5A5.006,5.006,0,0,1,12,30Z"/><path d="M21,30a4,4,0,1,0-4,4A4,4,0,0,0,21,30Zm-6,0a2,2,0,1,1,2,2A2,2,0,0,1,15,30Z"/><path d="M19,42a1,1,0,0,0-1,1v3.5a11.5,11.5,0,0,0,23,0V33a1,1,0,0,0-2,0V46.5a9.5,9.5,0,0,1-19,0V43A1,1,0,0,0,19,42Z"/><path d="M53,15H51l1.8-2.4a1,1,0,1,0-1.6-1.2l-3,4A1,1,0,0,0,49,17h2l-1.8,2.4a1,1,0,1,0,1.6,1.2l3-4A1,1,0,0,0,53,15Z"/><path d="M10,18H22a1,1,0,0,0,1-1V16h1a1,1,0,0,0,1-1V11a1,1,0,0,0-1-1H23V9a1,1,0,0,0-1-1H10A1,1,0,0,0,9,9v8A1,1,0,0,0,10,18Zm1-8H21v1a1,1,0,0,0,1,1h1v2H22a1,1,0,0,0-1,1v1H11Z"/><path d="M13,11a1,1,0,0,0-1,1v2a1,1,0,0,0,2,0V12A1,1,0,0,0,13,11Z"/><path d="M16,11a1,1,0,0,0-1,1v2a1,1,0,0,0,2,0V12A1,1,0,0,0,16,11Z"/><path d="M19,11a1,1,0,0,0-1,1v2a1,1,0,0,0,2,0V12A1,1,0,0,0,19,11Z"/></g></svg>
