<svg fill="#6DC535" id="a58e0a61-7914-4249-9b60-ec13aaf90b09" viewBox="0 0 64 64" xmlns="http://www.w3.org/2000/svg" data-name="Line"><path d="m31.99985 29.16585c-.79345 0-19.43.05469-19.43 4.81978.89756 5.79557 23.53029 4.84844 26.48252 4.547a1.00011 1.00011 0 0 0 -.16586-1.99333c-2.19334.18359-4.5107.27636-6.88665.27636-10.6586 0-16.81919-1.78709-17.41293-2.82859.602-1.03905 6.769-2.82126 17.41293-2.82126 10.81631 0 17.00961 1.8408 17.43636 2.77341-.125.312-1.61229 1.3745-6.63666 2.13768a1.00013 1.00013 0 0 0 .30078 1.97752c8.329-1.2661 8.329-3.37546 8.329-4.06881.00002-4.76507-18.63604-4.81976-19.42949-4.81976z"/><path d="m59.9996 23.95593c0-1.40416-.71173-3.45864-3.97659-5.44727-.95173-13.313-47.10959-13.31007-48.05035.00252-3.262 1.98788-3.97256 4.0412-3.97256 5.44475v10.0336c0 6.71039 14.42614 10.33146 27.99975 10.33146 13.57312 0 27.99975-3.62107 27.99975-10.33145zm-50.51127-4.01754a26.27477 26.27477 0 0 1 5.44867-2.17139 1.00012 1.00012 0 0 0 -.55374-1.92185 31.74231 31.74231 0 0 0 -4.0711 1.466c1.72441-3.528 9.99589-6.87421 21.68572-6.87421 11.679 0 19.94624 3.33975 21.68157 6.864-5.23401-2.31728-13.12835-3.67494-21.6796-3.67494a70.8076 70.8076 0 0 0 -13.62635 1.2597.99992.99992 0 1 0 .39258 1.96092c10.30644-2.301 28.28341-1.30559 35.74526 3.09248 2.25 1.25709 3.48827 2.68384 3.48827 4.01683v6.00044c-9.10306-8.36072-42.897-8.36006-51.99953.00006v-6.0005c0-1.33299 1.23876-2.75974 3.48825-4.01754zm22.51152 22.38261c-15.32213 0-25.99977-4.39058-25.99977-8.33146 0-3.9404 10.67764-8.331 25.99977-8.331s25.99976 4.39058 25.99976 8.331c0 3.94088-10.67761 8.33146-25.99976 8.33146z"/><path d="m54.16371 44.133a1 1 0 0 0 -1.54486 1.26957l3.34074 4.06778a.99979.99979 0 1 0 1.54487-1.26953z"/><path d="m47.531 46.16814a1.00029 1.00029 0 0 0 -1.75973.9512l2.74312 5.0756a1.00036 1.00036 0 0 0 1.75971-.95122z"/><path d="m40.36208 47.46793a.99985.99985 0 0 0 -1.9238.545l1.58981 5.60977a.99974.99974 0 1 0 1.9238-.54492z"/><path d="m9.8311 44.13446-3.3291 4.06784a1.00019 1.00019 0 0 0 1.5479 1.26654l3.329-4.06779a1.0002 1.0002 0 0 0 -1.5478-1.26659z"/><path d="m17.82077 45.76384a1.00253 1.00253 0 0 0 -1.35545.4043l-2.74314 5.07564a1.00018 1.00018 0 0 0 1.75975.95116l2.74314-5.07564a1.00071 1.00071 0 0 0 -.4043-1.35546z"/><path d="m24.87149 46.77848a1.00164 1.00164 0 0 0 -1.23436.68945l-1.58886 5.60981a.99975.99975 0 1 0 1.92381.54492l1.58886-5.60981a.99939.99939 0 0 0 -.68945-1.23437z"/><path d="m31.99985 47.86539a1 1 0 0 0 -1 1v5.60931a1 1 0 1 0 2 0v-5.60932a1 1 0 0 0 -1-.99999z"/></svg>