<svg height="512" viewBox="0 0 60 60" width="512" xmlns="http://www.w3.org/2000/svg"><g id="Page-1" fill="none" fill-rule="evenodd"><g id="021---Electricity-Administration" fill="#6DC535" fill-rule="nonzero" transform="translate(-1)"><path id="Shape" d="m36 32h8c.5522847 0 1-.4477153 1-1s-.4477153-1-1-1h-8c-.5522847 0-1 .4477153-1 1s.4477153 1 1 1z"/><path id="Shape" d="m48.293 33.707c.1874927.1875494.4418052.2929434.707.293h.071c.2895429-.0211914.5555841-.1671673.729-.4l3-4c.2143594-.2858125.2599564-.6642734.1196152-.9928203-.1403411-.3285469-.4452994-.5572656-.8-.6-.3547005-.0427344-.7052558.1070078-.9196152.3928203l-2.308 3.078-.185-.185c-.3923789-.3789722-1.0160848-.3735524-1.4018186.0121814s-.3911536 1.0094397-.0121814 1.4018186z"/><path id="Shape" d="m36 38h8c.5522847 0 1-.4477153 1-1s-.4477153-1-1-1h-8c-.5522847 0-1 .4477153-1 1s.4477153 1 1 1z"/><path id="Shape" d="m48.293 39.707c.1874927.1875494.4418052.2929434.707.293h.071c.2895429-.0211914.5555841-.1671673.729-.4l3-4c.2143594-.2858125.2599565-.6642735.1196153-.9928204s-.4452995-.5572656-.8-.6c-.3547006-.0427344-.705256.1070079-.9196153.3928204l-2.308 3.078-.185-.185c-.3923789-.3789722-1.0160848-.3735524-1.4018186.0121814s-.3911536 1.0094397-.0121814 1.4018186z"/><path id="Shape" d="m36 44h8c.5522847 0 1-.4477153 1-1s-.4477153-1-1-1h-8c-.5522847 0-1 .4477153-1 1s.4477153 1 1 1z"/><path id="Shape" d="m48.293 45.707c.1874927.1875494.4418052.2929434.707.293h.071c.2895429-.0211914.5555841-.1671673.729-.4l3-4c.2143594-.2858125.2599565-.6642735.1196153-.9928203-.1403412-.3285469-.4452995-.5572657-.8-.6000001-.3547006-.0427344-.705256.1070079-.9196153.3928204l-2.308 3.078-.185-.185c-.3923789-.3789722-1.0160848-.3735524-1.4018186.0121814s-.3911536 1.0094397-.0121814 1.4018186z"/><path id="Shape" d="m36 50h8c.5522847 0 1-.4477153 1-1s-.4477153-1-1-1h-8c-.5522847 0-1 .4477153-1 1s.4477153 1 1 1z"/><path id="Shape" d="m48.293 51.707c.1874927.1875494.4418052.2929434.707.293h.071c.2895429-.0211914.5555841-.1671673.729-.4l3-4c.2143594-.2858125.2599565-.6642735.1196153-.9928203-.1403412-.3285469-.4452995-.5572657-.8-.6000001-.3547006-.0427344-.705256.1070079-.9196153.3928204l-2.308 3.078-.185-.185c-.3923789-.3789722-1.0160848-.3735524-1.4018186.0121814s-.3911536 1.0094397-.0121814 1.4018186z"/><path id="Shape" d="m56 20h-3.278c-.3544126-.6167513-1.0106732-.997855-1.722-1h-2c0-1.6568542-1.3431458-3-3-3h-1.858c-3.1050445-10.92850005-14.0238342-17.69256455-25.1916141-15.60591496-11.16777992 2.0866496-18.90750726 12.33697436-17.85694482 23.64934516s10.54551212 19.9621376 21.90655892 19.9565698c1.3416635-.0006652 2.6804948-.1231682 4-.366v11.366c.0033061 2.7600532 2.2399468 4.9966939 5 5h24c2.7600532-.0033061 4.9966939-2.2399468 5-5v-30c-.0033061-2.7600532-2.2399468-4.9966939-5-5zm-20.722 6c.3544126.6167513 1.0106732.997855 1.722 1h14c.7113268-.002145 1.3675874-.3832487 1.722-1h1.278c.5522847 0 1 .4477153 1 1v26c0 .5522847-.4477153 1-1 1h-20c-.5522847 0-1-.4477153-1-1v-26c0-.5522847.4477153-1 1-1zm11.722-7v3c0 .5522847.4477153 1 1 1s1-.4477153 1-1v-1h2v4h-14v-4h2v1c0 .5522847.4477153 1 1 1s1-.4477153 1-1v-3c0-.5522847.4477153-1 1-1h4c.5522847 0 1 .4477153 1 1zm-24 23c-10.2626545.0086113-18.86633967-7.751878-19.91257985-17.9610667-1.04624018-10.2091886 5.80454529-19.55345589 15.85562585-21.62660118 10.0510806-2.07314529 20.0401529 3.79771711 23.118954 13.58766788h-.062c-1.6568542 0-3 1.3431458-3 3h-2c-.7113268.002145-1.3675874.3832487-1.722 1h-1.523c.331998-.6385543.3053779-1.4043307-.0701602-2.0182895-.3755381-.6139587-1.0451511-.9864379-1.7648398-.9817105h-6.455l2.805-7.176c.2796968-.61857936.2265109-1.3368073-.1412491-1.90744146-.36776-.57063415-.9998768-.91575507-1.6787509-.91655854h-6.66c-.926771.00121302-1.7313067.63896476-1.944 1.541l-3.529 15c-.1401173.5942325-.0011387 1.2199201.3773739 1.6989539.3785126.4790337.9550986.7589421 1.5656261.7600461h5.519l-1.729 8.67c-.1974538.9185426.3013416 1.8445137 1.177 2.185.2354549.0952739.4870002.1444966.741.145.6706535-.00196 1.2922613-.3517564 1.642-.924l3.39-5.476v10.99c-1.3162957.2699039-2.6563204.4072564-4 .41zm4-17v1.8l-4.929 7.956 1.671-8.371c.1147761-.5901683-.0407973-1.2007205-.424-1.664-.3790174-.4582801-.9432971-.7228091-1.538-.721h-5.516l3.526-15 6.639.046-3.36 8.59c-.1202463.3076848-.0807796.6549016.1054535.9277502.1862332.2728486.4951995.436118.8255465.4362498h7.92l.065.11-.684.961c-2.4606516.3434704-4.2939926 2.4445022-4.301 4.929zm32 30c0 1.6568542-1.3431458 3-3 3h-24c-1.6568542 0-3-1.3431458-3-3v-30c0-1.6568542 1.3431458-3 3-3h3v2h-1c-1.6568542 0-3 1.3431458-3 3v26c0 1.6568542 1.3431458 3 3 3h20c1.6568542 0 3-1.3431458 3-3v-26c0-1.6568542-1.3431458-3-3-3h-1v-2h3c1.6568542 0 3 1.3431458 3 3z"/></g></g></svg>
