<svg fill="#6DC535" id="Layer_1" enable-background="new 0 0 512 512" viewBox="0 0 512 512" xmlns="http://www.w3.org/2000/svg"><path d="m174.64 225.12h-45.99c-7.47 0-13.55 6.08-13.55 13.56v45.99c0 7.47 6.08 13.55 13.55 13.55h45.99c7.47 0 13.55-6.08 13.55-13.55v-45.99c.01-7.48-6.07-13.56-13.55-13.56zm1.56 59.54c0 .84-.71 1.55-1.55 1.55h-45.99c-.84 0-1.55-.71-1.55-1.55v-45.99c0-.84.71-1.56 1.55-1.56h45.99c.84 0 1.55.71 1.55 1.56zm162.4-8.6c0 3.31-2.69 6-6 6h-124.73c-3.31 0-6-2.69-6-6s2.69-6 6-6h124.73c3.31 0 6 2.69 6 6zm-136.73-28.78c0-3.31 2.69-6 6-6h103.95c3.31 0 6 2.69 6 6s-2.69 6-6 6h-103.95c-3.32 0-6-2.69-6-6zm-33.12 1.52c2.34 2.34 2.34 6.14 0 8.49l-17.25 17.25c-1.17 1.17-2.71 1.76-4.24 1.76s-3.07-.59-4.24-1.76l-8.46-8.46c-2.34-2.34-2.34-6.14 0-8.49 2.34-2.34 6.14-2.34 8.49 0l4.22 4.22 13-13c2.33-2.35 6.13-2.35 8.48-.01zm5.89 76.93h-45.99c-7.47 0-13.55 6.08-13.55 13.56v45.99c0 7.47 6.08 13.55 13.55 13.55h45.99c7.47 0 13.55-6.08 13.55-13.55v-45.99c.01-7.48-6.07-13.56-13.55-13.56zm1.56 59.54c0 .84-.71 1.55-1.55 1.55h-45.99c-.84 0-1.55-.71-1.55-1.55v-45.99c0-.84.71-1.56 1.55-1.56h45.99c.84 0 1.55.71 1.55 1.56zm-7.45-35.86c2.34 2.34 2.34 6.14 0 8.49l-17.25 17.25c-1.17 1.17-2.71 1.76-4.24 1.76s-3.07-.59-4.24-1.76l-8.46-8.46c-2.34-2.34-2.34-6.14 0-8.48s6.14-2.34 8.49 0l4.22 4.22 13-13c2.33-2.36 6.13-2.36 8.48-.02zm279.54 36.06-8.75-1.85c-1.98-8.41-5.28-16.37-9.85-23.76l4.88-7.5c2.39-3.67 1.9-8.4-1.2-11.5l-11.09-11.09c-3.1-3.1-7.82-3.59-11.5-1.2l-7.5 4.88c-1.96-1.21-3.97-2.33-6.02-3.37v-240.38c0-16.61-13.51-30.12-30.12-30.12h-60.73c-1.43-5.36-4.74-10.01-9.57-13.21-6.59-4.37-14.55-5.11-21.84-2.03l-7.48 3.16c-1.96.83-3.94 1.6-5.92 2.32v-.06c0-19.16-15.59-34.75-34.75-34.75s-34.75 15.58-34.75 34.74v.06c-1.98-.71-3.96-1.49-5.92-2.32l-7.48-3.16c-7.29-3.08-15.25-2.34-21.84 2.03-4.83 3.2-8.15 7.85-9.58 13.21h-60.73c-16.61 0-30.12 13.51-30.12 30.12v344.04c0 16.61 13.51 30.12 30.12 30.12h201.93l10.95 10.95c3.1 3.1 7.83 3.59 11.5 1.2l7.5-4.88c7.37 4.56 15.33 7.86 23.76 9.85l1.85 8.74c.9 4.29 4.6 7.28 8.98 7.28h15.69c4.38 0 8.08-2.99 8.98-7.28l1.85-8.75c8.41-1.98 16.37-5.28 23.76-9.85l7.5 4.88c3.67 2.39 8.4 1.9 11.5-1.2l11.09-11.09c3.1-3.1 3.59-7.83 1.2-11.5l-4.88-7.5c4.56-7.37 7.86-15.33 9.85-23.76l8.75-1.85c4.29-.91 7.28-4.6 7.28-8.98v-15.69c-.02-4.36-3.02-8.05-7.3-8.95zm-63.02-295.77v235.5c-1.89-.6-3.8-1.13-5.74-1.59l-1.85-8.75c-.64-3.04-2.69-5.43-5.39-6.56v-217.74c0-3.31-2.69-6-6-6h-59.07v-12.98h59.93c9.99 0 18.12 8.13 18.12 18.12zm-226.78-24.01c0-3.93 1.73-7.15 5-9.32s6.92-2.51 10.53-.98l7.48 3.16c4.94 2.09 9.98 3.86 14.97 5.26 1.81.51 3.75.14 5.25-.99s2.38-2.9 2.38-4.78v-8.29c0-12.54 10.21-22.75 22.75-22.75s22.75 10.21 22.75 22.75v8.29c0 1.88.88 3.65 2.38 4.78s3.44 1.5 5.25.99c4.98-1.4 10.02-3.17 14.97-5.26l7.48-3.16c3.62-1.53 7.26-1.19 10.53.98s5 5.39 5 9.32v24.93h-136.72zm142.72 36.92c3.31 0 6-2.69 6-6v-.06h53.07v211.02h-7.28c-4.38 0-8.07 2.99-8.98 7.28l-1.85 8.75c-8.41 1.98-16.37 5.28-23.76 9.85l-7.5-4.88c-3.67-2.39-8.4-1.9-11.5 1.2l-11.09 11.09c-.32.32-.61.67-.88 1.02h-79.59c-3.31 0-6 2.69-6 6s2.69 6 6 6h80.26l3.89 5.97c-2.15 3.47-4.01 7.08-5.59 10.81h-78.56c-3.31 0-6 2.69-6 6s2.69 6 6 6h74.55c-.08.32-.17.63-.24.95l-8.75 1.85c-4.29.91-7.28 4.6-7.28 8.98v15.69c0 4.38 2.99 8.07 7.28 8.98l8.75 1.85c.47 2 1.02 3.97 1.64 5.92h-190.39v-330.32h53.07v.06c0 3.31 2.69 6 6 6h148.73zm-13.84 349.25h-200.82c-9.99 0-18.12-8.13-18.12-18.12v-344.04c0-9.99 8.13-18.12 18.12-18.12h59.93v12.98h-59.07c-3.31 0-6 2.69-6 6v342.32c0 3.31 2.69 6 6 6h201.32c1.01 1.99 2.1 3.93 3.28 5.84zm156.2-44.02-10.33 2.18c-2.38.5-4.22 2.39-4.66 4.78l-.02.13c-1.76 9.47-5.42 18.31-10.87 26.25l-.08.11c-1.39 2-1.43 4.65-.1 6.69l5.77 8.86-7.86 7.86-8.86-5.77c-2.04-1.33-4.69-1.29-6.7.1l-.08.06c-7.97 5.47-16.8 9.13-26.26 10.89l-.13.02c-2.39.44-4.28 2.28-4.79 4.66l-2.19 10.34h-11.11l-2.18-10.33c-.5-2.38-2.39-4.22-4.79-4.66l-.12-.02c-9.47-1.76-18.31-5.42-26.25-10.87l-.11-.08c-2-1.39-4.65-1.43-6.7-.1l-8.86 5.77-7.86-7.86 5.77-8.86c1.32-2.03 1.29-4.66-.08-6.66l-.08-.12c-5.47-7.97-9.13-16.8-10.89-26.26l-.02-.13c-.44-2.39-2.28-4.28-4.66-4.78l-10.33-2.18v-11.11l10.33-2.18c2.38-.5 4.22-2.39 4.66-4.78l.02-.13c1.76-9.47 5.42-18.31 10.89-26.28l.08-.11c1.37-2 1.4-4.63.08-6.66l-5.77-8.86 7.86-7.86 8.86 5.77c2.04 1.33 4.69 1.29 6.7-.1l.08-.06c7.97-5.47 16.8-9.13 26.26-10.89l.13-.02c2.39-.44 4.28-2.28 4.79-4.66l2.18-10.33h11.11l2.18 10.33c.5 2.38 2.39 4.22 4.79 4.66l.12.02c9.47 1.76 18.31 5.42 26.24 10.87l.11.08c2 1.39 4.65 1.43 6.7.1l8.86-5.77 7.86 7.86-5.77 8.86c-1.33 2.04-1.29 4.69.1 6.69l.06.09c5.47 7.97 9.13 16.8 10.89 26.26l.02.13c.44 2.39 2.28 4.28 4.66 4.78l10.33 2.18v11.1zm-82.72-65.17c-32.88 0-59.62 26.75-59.62 59.62 0 32.88 26.75 59.62 59.62 59.62s59.62-26.75 59.62-59.62c.01-32.88-26.74-59.62-59.62-59.62zm0 107.24c-26.26 0-47.62-21.36-47.62-47.62s21.36-47.62 47.62-47.62 47.62 21.36 47.62 47.62c.01 26.26-21.36 47.62-47.62 47.62zm-224.11-323.28c-2.5 0-4.73 1.55-5.62 3.89l-20.76 55.13c-1.17 3.1.4 6.56 3.5 7.73s6.56-.4 7.73-3.5l4.08-10.84h22.12l4.08 10.84c.91 2.4 3.19 3.89 5.62 3.89.7 0 1.42-.12 2.11-.39 3.1-1.17 4.67-4.63 3.5-7.73l-20.76-55.13c-.86-2.35-3.1-3.89-5.6-3.89zm-6.54 40.39 6.54-17.37 6.54 17.37zm143.32 20.73v-55.13c0-3.31 2.69-6 6-6s6 2.69 6 6v55.13c0 3.31-2.69 6-6 6s-6-2.68-6-6zm16.68-55.12c0-3.31 2.69-6 6-6h41.52c3.31 0 6 2.69 6 6s-2.69 6-6 6h-14.76v49.13c0 3.31-2.69 6-6 6s-6-2.69-6-6v-49.13h-14.76c-3.31 0-6-2.69-6-6zm-63.74 61.12h6.22c18.51 0 33.56-15.06 33.56-33.56s-15.06-33.56-33.56-33.56h-6.22c-3.31 0-6 2.69-6 6v55.13c0 3.31 2.69 5.99 6 5.99zm6-55.12h.22c11.89 0 21.56 9.67 21.56 21.56s-9.67 21.56-21.56 21.56h-.22zm-67.26 31.95v-37.95c0-3.31 2.69-6 6-6s6 2.69 6 6v37.95c0 6.16 5.01 11.17 11.17 11.17s11.17-5.01 11.17-11.17v-37.95c0-3.31 2.69-6 6-6s6 2.69 6 6v37.95c0 12.78-10.4 23.17-23.17 23.17s-23.17-10.39-23.17-23.17zm222.69 231.71c0 3.31-2.69 6-6 6h-21.04c-3.31 0-6-2.69-6-6v-33.03c0-3.31 2.69-6 6-6s6 2.69 6 6v27.03h15.04c3.32 0 6 2.69 6 6z"/></svg>