<?xml version="1.0" encoding="UTF-8"?>
<svg fill="#6DC535" xmlns="http://www.w3.org/2000/svg" viewBox="0 0 48 48" width="512" height="512"><g id="Electricity"><path d="M21,16H17V11h2v1a1,1,0,0,0,2,0V10a1,1,0,0,0-1-1H16.59L11.87.51a1,1,0,0,0-1.74,0L5.41,9H2a1,1,0,0,0-1,1v2a1,1,0,0,0,2,0V11H5v5H1a1,1,0,0,0-1,1v2a1,1,0,0,0,2,0V18H5c0,7.9.49,2.82-2.85,24H1a1,1,0,0,0-1,1v4a1,1,0,0,0,1,1H21a1,1,0,0,0,1-1V43a1,1,0,0,0-1-1H19.85C16.51,20.83,17,25.9,17,18h3v1a1,1,0,0,0,2,0V17A1,1,0,0,0,21,16ZM11,3.06,14.3,9H7.7ZM7,11h8v5H7ZM5.22,35.33l3.93,2.53L4.34,41Zm.87-5.48,2.37,1L5.74,32ZM11,32l4.4,1.88L11,36.67,6.6,33.84Zm0,7.09,4.59,3H6.41ZM17.66,41l-4.81-3.09,3.93-2.53ZM13.54,30.87l2.37-1L16.26,32Zm2.05-3.05-4.59,2-4.59-2L6.85,25h8.3ZM20,46H2V44H20ZM15,23H7V18h8Z"/><path d="M47,24H46V21a1,1,0,0,0-1-1H27a1,1,0,0,0-1,1v3H25a1,1,0,0,0-1,1V47a1,1,0,0,0,1,1H47a1,1,0,0,0,1-1V25A1,1,0,0,0,47,24ZM28,22H44v2H28Zm4,24V40h8v6Zm14,0H42V40a1,1,0,0,0,0-2H30a1,1,0,0,0,0,2v6H26V26H46Z"/><path d="M43,28H38a1,1,0,0,0-1,1v6a1,1,0,0,0,1,1h5a1,1,0,0,0,1-1V29A1,1,0,0,0,43,28Zm-1,6H39V30h3Z"/><path d="M34,28H29a1,1,0,0,0-1,1v6a1,1,0,0,0,1,1h5a1,1,0,0,0,1-1V29A1,1,0,0,0,34,28Zm-1,6H30V30h3Z"/></g></svg>
