<svg fill="#6DC535" height="512" viewBox="0 0 512 512" width="512" xmlns="http://www.w3.org/2000/svg"><g><path d="m416 192h-8v-144a8 8 0 0 0 -8-8h-288a8 8 0 0 0 -8 8v368a8 8 0 0 0 8 8h288a8 8 0 0 0 8-8v-144h8a8 8 0 0 0 8-8v-64a8 8 0 0 0 -8-8zm-24 216h-272v-352h272v136h-8a8 8 0 0 0 -8 8v64a8 8 0 0 0 8 8h8zm16-152h-16v-48h16z"/><path d="m200 320h112a8 8 0 0 0 8-8v-48a8 8 0 0 0 -8-8h-112a8 8 0 0 0 -8 8v48a8 8 0 0 0 8 8zm8-48h96v32h-96z"/><path d="m328 336h-144a8 8 0 0 0 0 16h144a8 8 0 0 0 0-16z"/><path d="m296 368h-80a8 8 0 0 0 0 16h80a8 8 0 0 0 0-16z"/><path d="m464 120a8 8 0 0 0 8-8v-64a8 8 0 0 0 -8-8h-16v-12a28.031 28.031 0 0 0 -28-28h-328a28.031 28.031 0 0 0 -28 28v12h-16a8 8 0 0 0 -8 8v64a8 8 0 0 0 8 8h16v224h-16a8 8 0 0 0 -8 8v64a8 8 0 0 0 8 8h16v12a28.031 28.031 0 0 0 28 28h44v40a8 8 0 0 0 8 8h32a8 8 0 0 0 8-8v-40h48v40a8 8 0 0 0 8 8h32a8 8 0 0 0 8-8v-40h48v40a8 8 0 0 0 8 8h32a8 8 0 0 0 8-8v-40h44a28.031 28.031 0 0 0 28-28v-12h16a8 8 0 0 0 8-8v-64a8 8 0 0 0 -8-8h-16v-224zm-16-64h8v48h-8zm-384 352h-8v-48h8zm0-304h-8v-48h8zm104 392h-16v-32h16zm96 0h-16v-32h16zm96 0h-16v-32h16zm72-60a12.01 12.01 0 0 1 -12 12h-328a12.01 12.01 0 0 1 -12-12v-408a12.01 12.01 0 0 1 12-12h328a12.01 12.01 0 0 1 12 12zm24-76v48h-8v-48z"/><path d="m303.29 148.69a8.019 8.019 0 0 0 -7.29-4.69h-14.94l6.88-55.01a8 8 0 0 0 -13.6-6.65l-64 64a8 8 0 0 0 5.66 13.66h16v56a8 8 0 0 0 14.02 5.27l56-64a8.019 8.019 0 0 0 1.27-8.58zm-55.29 46.02v-42.71a8 8 0 0 0 -8-8h-4.69l33.86-33.86-5.11 40.87a8 8 0 0 0 7.94 8.99h6.37z"/></g></svg>