<svg fill="#6DC535" id="Capa_1" enable-background="new 0 0 512.024 512.024" height="512" viewBox="0 0 512.024 512.024" width="512" xmlns="http://www.w3.org/2000/svg"><g><path d="m437.253 36.47h-181.747c-4.143 0-7.5 3.358-7.5 7.5s3.357 7.5 7.5 7.5h181.746c1.379 0 2.5 1.09 2.5 2.429v404.225c0 1.339-1.121 2.429-2.5 2.429h-290.77v-38.098c12.127-2.315 21.324-12.993 21.324-25.784s-9.197-23.469-21.324-25.784v-229.752c12.127-2.315 21.324-12.992 21.324-25.784 0-12.791-9.197-23.469-21.324-25.784v-38.097h79.024c4.143 0 7.5-3.358 7.5-7.5s-3.357-7.5-7.5-7.5h-83.842c-.005 0-.01.001-.015.001l-60.833-34.403c-4.938-2.793-10.813-2.755-15.717.105-4.901 2.859-7.828 7.954-7.828 13.629v480.42c0 5.689 2.938 10.791 7.858 13.646 2.477 1.437 5.196 2.156 7.918 2.156 2.688 0 5.375-.701 7.829-2.103l60.238-34.422c.286.033.576.055.872.055h295.267c9.649 0 17.5-7.819 17.5-17.429v-404.226c0-9.611-7.851-17.429-17.5-17.429zm-284.447 360.202c0 6.206-5.049 11.255-11.255 11.255h-3.245c-1.379 0-2.5-1.122-2.5-2.5v-17.509c0-1.378 1.121-2.5 2.5-2.5h3.245c6.206-.001 11.255 5.048 11.255 11.254zm0-281.321c0 6.206-5.049 11.255-11.255 11.255h-3.245c-1.379 0-2.5-1.122-2.5-2.5v-17.509c0-1.378 1.121-2.5 2.5-2.5h3.245c6.206-.001 11.255 5.048 11.255 11.254zm-79.371 381.546c-.116.066-.388.223-.776-.002s-.388-.539-.388-.673v-480.421c0-.134 0-.447.386-.672.388-.226.658-.071.774-.005l58.051 32.829v42.53c-6.269 2.665-10.676 8.884-10.676 16.114v17.509c0 7.23 4.407 13.449 10.676 16.114v231.584c-6.269 2.665-10.676 8.884-10.676 16.114v17.509c0 7.23 4.407 13.449 10.676 16.114v42.187z"/><path d="m394.57 83.382h-202.915c-4.143 0-7.5 3.358-7.5 7.5v.027 330.232c0 4.142 3.357 7.5 7.5 7.5h72.965c4.142 0 7.5-3.358 7.5-7.5s-3.358-7.5-7.5-7.5h-65.465v-42.978l187.915-.001v42.979h-92.45c-4.143 0-7.5 3.358-7.5 7.5s3.357 7.5 7.5 7.5h99.95c4.143 0 7.5-3.358 7.5-7.5l.001-330.231c0-.007-.001-.013-.001-.019v-.009c0-4.142-3.358-7.5-7.5-7.5zm-60.202 202.13v-22h52.702v22zm-67.51 0v-22h52.51v22zm-67.703 0v-21.999h52.703v21.999zm187.915-37.001h-187.915v-42.951l187.915-.001zm-187.915-113.102h20.055v26.832c0 4.142 3.357 7.5 7.5 7.5s7.5-3.358 7.5-7.5v-26.832h17.648v55.151h-52.703zm187.915-15h-52.702v-21.999h52.702zm-67.702 70.151h-52.51v-55.151h18.755v26.832c0 4.142 3.357 7.5 7.5 7.5s7.5-3.358 7.5-7.5v-26.832h18.755zm-52.51-70.151v-21.999h52.51v21.999zm-15-21.999v22h-52.703v-22zm82.51 92.15v-55.151h18.851v26.832c0 4.142 3.357 7.5 7.5 7.5s7.5-3.358 7.5-7.5v-26.832h18.852v55.151zm-135.213 109.952h18.852v26.832c0 4.142 3.357 7.5 7.5 7.5s7.5-3.358 7.5-7.5v-26.832h18.852v55.152h-52.703v-55.152zm67.703 0h18.755v26.832c0 4.142 3.357 7.5 7.5 7.5s7.5-3.358 7.5-7.5v-26.832h18.755v55.151h-52.51zm67.51 55.151v-55.151h18.851v26.832c0 4.142 3.357 7.5 7.5 7.5s7.5-3.358 7.5-7.5v-26.832h18.852v55.151z"/></g></svg>