<svg version="1.1" id="Capa_1" xmlns="http://www.w3.org/2000/svg" xmlns:xlink="http://www.w3.org/1999/xlink" x="0px" y="0px" viewBox="0 0 512 512" style="enable-background:new 0 0 512 512;" xml:space="preserve">
<g>
	<g>
		<g>
			
				<line style="fill:none;stroke:#6DC535;stroke-width:15;stroke-linecap:round;stroke-linejoin:round;stroke-miterlimit:10;" x1="202.781" y1="135.423" x2="223.61" y2="156.253"/>
			
				<line style="fill:none;stroke:#6DC535;stroke-width:15;stroke-linecap:round;stroke-linejoin:round;stroke-miterlimit:10;" x1="189.852" y1="187.602" x2="170.95" y2="168.699"/>
			<g>
				<path style="fill:none;stroke:#6DC535;stroke-width:15;stroke-linecap:round;stroke-linejoin:round;stroke-miterlimit:10;" d="&#10;&#9;&#9;&#9;&#9;&#9;M140.973,126.777l-13.597,13.597c-3.869,3.869-3.869,10.143,0,14.012l19.942,19.942c3.869,3.869,10.143,3.869,14.012,0&#10;&#9;&#9;&#9;&#9;&#9;l47.803-47.803c3.869-3.869,3.869-10.143,0-14.012l-19.942-19.942c-3.869-3.869-10.143-3.869-14.012,0l-10.99,10.99"/>
			</g>
		</g>
		
			<line style="fill:none;stroke:#6DC535;stroke-width:15;stroke-linecap:round;stroke-linejoin:round;stroke-miterlimit:10;" x1="307.319" y1="121.371" x2="307.319" y2="92.845"/>
		
			<line style="fill:none;stroke:#6DC535;stroke-width:15;stroke-linecap:round;stroke-linejoin:round;stroke-miterlimit:10;" x1="353.356" y1="91.882" x2="353.356" y2="121.371"/>
		<g>
			<g>
				<g>
					<g>
						<g>
							<g>
								<g>
									
										<path style="fill:none;stroke:#6DC535;stroke-width:15;stroke-linecap:round;stroke-linejoin:round;stroke-miterlimit:10;" d="&#10;&#9;&#9;&#9;&#9;&#9;&#9;&#9;&#9;&#9;&#9;M465.132,278.703c-8.29-67.076-65.476-119.002-134.795-119.002c-75.018,0-135.832,60.814-135.832,135.832&#10;&#9;&#9;&#9;&#9;&#9;&#9;&#9;&#9;&#9;&#9;c0,75.018,60.814,135.832,135.832,135.832c69.604,0,126.97-52.356,134.89-119.832"/>
								</g>
							</g>
							
								<path style="fill:none;stroke:#6DC535;stroke-width:15;stroke-linecap:round;stroke-linejoin:round;stroke-miterlimit:10;" d="&#10;&#9;&#9;&#9;&#9;&#9;&#9;&#9;&#9;M219.696,430.039c30.085,24.776,68.625,39.656,110.642,39.656c96.187,0,174.162-77.975,174.162-174.162&#10;&#9;&#9;&#9;&#9;&#9;&#9;&#9;&#9;s-77.975-174.162-174.162-174.162c-96.187,0-174.162,77.975-174.162,174.162c0,42.348,15.12,81.161,40.248,111.349"/>
						</g>
					</g>
				</g>
				<g>
					<g>
						
							<line style="fill:none;stroke:#6DC535;stroke-width:15;stroke-linecap:round;stroke-linejoin:round;stroke-miterlimit:10;" x1="330.338" y1="190.504" x2="330.338" y2="200.92"/>
						
							<line style="fill:none;stroke:#6DC535;stroke-width:15;stroke-linecap:round;stroke-linejoin:round;stroke-miterlimit:10;" x1="330.338" y1="390.151" x2="330.338" y2="400.568"/>
					</g>
					<g>
						
							<line style="fill:none;stroke:#6DC535;stroke-width:15;stroke-linecap:round;stroke-linejoin:round;stroke-miterlimit:10;" x1="435.37" y1="295.536" x2="424.953" y2="295.536"/>
						
							<line style="fill:none;stroke:#6DC535;stroke-width:15;stroke-linecap:round;stroke-linejoin:round;stroke-miterlimit:10;" x1="235.722" y1="295.536" x2="225.305" y2="295.536"/>
					</g>
				</g>
			</g>
			<g>
				
					<circle style="fill:none;stroke:#6DC535;stroke-width:15;stroke-linecap:round;stroke-linejoin:round;stroke-miterlimit:10;" cx="330.337" cy="295.534" r="16.353"/>
				
					<line style="fill:none;stroke:#6DC535;stroke-width:15;stroke-linecap:round;stroke-linejoin:round;stroke-miterlimit:10;" x1="318.774" y1="307.097" x2="270.719" y2="355.152"/>
			</g>
		</g>
		<g>
			<path style="fill:none;stroke:#6DC535;stroke-width:15;stroke-linecap:round;stroke-linejoin:round;stroke-miterlimit:10;" d="&#10;&#9;&#9;&#9;&#9;M364.139,90.323h-67.603c-5.472,0-9.908-4.436-9.908-9.908V52.213c0-5.472,4.436-9.908,9.908-9.908h67.603&#10;&#9;&#9;&#9;&#9;c5.472,0,9.908,4.436,9.908,9.908v28.202C374.047,85.887,369.611,90.323,364.139,90.323z"/>
		</g>
	</g>
	
		<line style="fill:none;stroke:#6DC535;stroke-width:15;stroke-linecap:round;stroke-linejoin:round;stroke-miterlimit:10;" x1="156.175" y1="295.533" x2="47.158" y2="295.533"/>
	
		<line style="fill:none;stroke:#6DC535;stroke-width:15;stroke-linecap:round;stroke-linejoin:round;stroke-miterlimit:10;" x1="167.822" y1="232.786" x2="7.5" y2="232.786"/>
	
		<line style="fill:none;stroke:#6DC535;stroke-width:15;stroke-linecap:round;stroke-linejoin:round;stroke-miterlimit:10;" x1="27.329" y1="264.159" x2="159" y2="264.159"/>
	
		<line style="fill:none;stroke:#6DC535;stroke-width:15;stroke-linecap:round;stroke-linejoin:round;stroke-miterlimit:10;" x1="66.987" y1="326.912" x2="159" y2="326.912"/>
	
		<line style="fill:none;stroke:#6DC535;stroke-width:15;stroke-linecap:round;stroke-linejoin:round;stroke-miterlimit:10;" x1="86.816" y1="358.288" x2="167.822" y2="358.288"/>
	
		<line style="fill:none;stroke:#6DC535;stroke-width:15;stroke-linecap:round;stroke-linejoin:round;stroke-miterlimit:10;" x1="106.645" y1="389.664" x2="181.453" y2="389.664"/>
</g>
<g>
</g>
<g>
</g>
<g>
</g>
<g>
</g>
<g>
</g>
<g>
</g>
<g>
</g>
<g>
</g>
<g>
</g>
<g>
</g>
<g>
</g>
<g>
</g>
<g>
</g>
<g>
</g>
<g>
</g>
</svg>