<svg fill="#6DC535" id="Layer_1" enable-background="new 0 0 512 512" viewBox="0 0 512 512" xmlns="http://www.w3.org/2000/svg"><path d="m169.726 41.967c0-4.615 3.764-8.379 8.379-8.379s8.379 3.764 8.379 8.379-3.765 8.378-8.379 8.378-8.379-3.763-8.379-8.378zm34.964 305.582h-30.384c-4.418 0-8 3.582-8 8s3.582 8 8 8h30.384c4.418 0 8-3.582 8-8s-3.582-8-8-8zm53.731-86.92c0-4.418-3.582-8-8-8h-76.114c-4.418 0-8 3.582-8 8s3.582 8 8 8h76.114c4.418 0 8-3.582 8-8zm-84.114-25.755h104.148c4.418 0 8-3.582 8-8s-3.582-8-8-8h-104.148c-4.418 0-8 3.582-8 8s3.582 8 8 8zm53.913 78.92h-53.913c-4.418 0-8 3.582-8 8s3.582 8 8 8h53.913c4.418 0 8-3.582 8-8s-3.582-8-8-8zm-83.298 1.419v46.918c0 7.788-6.337 14.124-14.125 14.124h-46.917c-7.788 0-14.125-6.336-14.125-14.124v-46.918c0-7.788 6.337-14.125 14.125-14.125h46.917c7.788 0 14.125 6.337 14.125 14.125zm-16 1.875h-43.167v43.167h43.167zm-29.436 36.312c1.505 1.504 3.541 2.343 5.657 2.343.14 0 .28-.004.421-.011 2.265-.12 4.372-1.194 5.799-2.958l14.676-18.143c2.778-3.436 2.247-8.473-1.188-11.251-3.434-2.779-8.472-2.246-11.251 1.188l-9.085 11.231-3.999-4c-3.125-3.123-8.189-3.123-11.314 0-3.124 3.125-3.124 8.189 0 11.314zm45.436-133.108v46.918c0 7.788-6.337 14.125-14.125 14.125h-46.917c-7.788 0-14.125-6.337-14.125-14.125v-46.918c0-7.788 6.337-14.124 14.125-14.124h46.917c7.788 0 14.125 6.336 14.125 14.124zm-16 1.876h-43.167v43.167h43.167zm-29.436 36.312c1.505 1.504 3.541 2.343 5.657 2.343.14 0 .28-.004.421-.011 2.265-.12 4.373-1.194 5.799-2.958l14.676-18.144c2.778-3.436 2.246-8.473-1.188-11.251-3.437-2.779-8.472-2.246-11.251 1.188l-9.085 11.232-3.999-4c-3.125-3.123-8.189-3.123-11.314 0-3.124 3.125-3.124 8.189 0 11.314zm74.821-87.74h104.148c4.418 0 8-3.582 8-8s-3.582-8-8-8h-104.148c-4.418 0-8 3.582-8 8s3.582 8 8 8zm0-33.755h104.148c4.418 0 8-3.582 8-8s-3.582-8-8-8h-104.148c-4.418 0-8 3.582-8 8s3.582 8 8 8zm-29.385-14.581v46.917c0 7.788-6.337 14.125-14.125 14.125h-46.917c-7.788 0-14.125-6.337-14.125-14.125v-46.917c0-7.788 6.337-14.125 14.125-14.125h46.917c7.788 0 14.125 6.337 14.125 14.125zm-16 1.875h-43.167v43.167h43.167zm-29.436 36.313c1.505 1.504 3.541 2.343 5.657 2.343.14 0 .28-.004.421-.011 2.265-.12 4.373-1.194 5.799-2.958l14.676-18.144c2.778-3.436 2.246-8.473-1.188-11.251-3.437-2.779-8.472-2.245-11.251 1.188l-9.085 11.232-3.999-4c-3.125-3.123-8.189-3.123-11.314 0-3.124 3.125-3.124 8.189 0 11.314zm404.514 184.144v36.062c0 3.31-2.038 6.277-5.126 7.466l-18.23 7.018c-2.676 9.721-6.544 19.051-11.54 27.834l7.936 17.865c1.343 3.024.686 6.563-1.654 8.904l-25.5 25.5c-2.341 2.339-5.878 2.996-8.904 1.654l-17.858-7.932c-8.783 4.995-18.117 8.865-27.843 11.542l-7.015 18.225c-1.188 3.088-4.156 5.126-7.466 5.126h-36.062c-3.31 0-6.277-2.038-7.466-5.126l-7.018-18.229c-9.72-2.677-19.051-6.545-27.834-11.541l-17.865 7.936c-3.025 1.342-6.563.685-8.904-1.654l-25.5-25.5c-2.34-2.341-2.997-5.88-1.654-8.904l.616-1.387h-214.48c-14.686-.001-26.633-11.949-26.633-26.634v-342.844c0-14.685 11.947-26.632 26.633-26.632h63.735v-3.263c0-4.418 3.582-8 8-8h35.177c6.102-14.531 20.345-24.222 36.559-24.222s30.457 9.691 36.561 24.223h35.176c4.418 0 8 3.582 8 8v3.263h63.736c14.686 0 26.633 11.947 26.633 26.632v151.418h32.588c3.31 0 6.277 2.038 7.466 5.126l7.017 18.23c9.721 2.676 19.051 6.544 27.835 11.54l17.865-7.935c3.026-1.343 6.563-.686 8.903 1.654l25.5 25.499c2.341 2.341 2.998 5.88 1.655 8.904l-7.932 17.858c4.995 8.783 8.865 18.117 11.542 27.843l18.225 7.015c3.088 1.189 5.126 4.157 5.126 7.466zm-246.159-285.251v9.92h56.448c4.418 0 8 3.582 8 8v169.986c2.624-.92 5.278-1.76 7.965-2.5l1.956-5.082v-169.692c0-5.862-4.77-10.632-10.633-10.632zm-7.691 216.167 25.499-25.5c2.34-2.342 5.879-3.001 8.904-1.655l17.865 7.935c1.277-.727 2.57-1.422 3.87-2.101v-168.926h-48.448v3.263c0 4.418-3.582 8-8 8h-143.472c-4.418 0-8-3.582-8-8v-3.263h-48.448v312.269h195.665c-.237-.797-.479-1.592-.699-2.395l-18.225-7.015c-3.088-1.188-5.126-4.156-5.126-7.466v-36.062c0-3.31 2.038-6.277 5.126-7.466l18.228-7.017c2.677-9.724 6.546-19.056 11.541-27.837l-7.934-17.862c-1.343-3.023-.685-6.562 1.654-8.902zm-135.782-194.984h127.473v-32.445h-32.944c-3.695 0-6.91-2.531-7.777-6.124-2.571-10.657-12.035-18.099-23.016-18.099s-20.444 7.442-23.014 18.099c-.867 3.593-4.082 6.124-7.777 6.124h-32.945zm141.85 342.926.209-.472c-1.753-3.083-3.36-6.237-4.833-9.448h-209.674c-4.418 0-8-3.582-8-8v-328.269c0-4.418 3.582-8 8-8h56.448v-9.92h-63.735c-5.863 0-10.633 4.77-10.633 10.632v342.844c0 5.863 4.77 10.633 10.633 10.633zm231.782-73.365-16.947-6.523c-2.462-.947-4.298-3.048-4.908-5.614-2.604-10.942-6.923-21.359-12.835-30.96-1.384-2.247-1.57-5.031-.5-7.442l7.377-16.609-17.731-17.73-16.616 7.379c-2.409 1.071-5.193.885-7.441-.499-9.604-5.913-20.018-10.23-30.953-12.833-2.566-.61-4.667-2.446-5.614-4.908l-6.525-16.953h-25.077l-6.526 16.953c-.947 2.462-3.048 4.298-5.614 4.908-10.936 2.603-21.35 6.92-30.953 12.833-2.246 1.384-5.032 1.57-7.441.499l-16.615-7.379-17.731 17.731 7.378 16.613c1.07 2.411.884 5.195-.5 7.442-5.911 9.6-10.229 20.015-12.833 30.955-.61 2.565-2.446 4.666-4.908 5.613l-16.95 6.524v25.076l16.947 6.523c2.462.947 4.298 3.048 4.908 5.614 2.605 10.945 6.923 21.361 12.835 30.96 1.384 2.246 1.57 5.031.5 7.442l-3.933 8.854c-.003.008-.007.015-.01.023l-3.434 7.732 17.731 17.731 16.616-7.38c2.409-1.071 5.193-.885 7.441.499 9.604 5.913 20.018 10.231 30.953 12.834 2.565.61 4.666 2.446 5.613 4.908l6.525 16.955h25.076l6.523-16.947c.947-2.462 3.048-4.298 5.614-4.908 10.942-2.604 21.359-6.923 30.96-12.835 2.248-1.386 5.033-1.57 7.442-.5l16.609 7.377 17.731-17.731-7.38-16.616c-1.07-2.411-.884-5.195.499-7.441 5.913-9.603 10.23-20.017 12.833-30.952.61-2.566 2.446-4.667 4.908-5.614l16.956-6.528zm-44.633 12.539c0 44.442-36.157 80.6-80.601 80.6-44.442 0-80.6-36.157-80.6-80.6s36.157-80.6 80.6-80.6c44.444 0 80.601 36.157 80.601 80.6zm-16 0c0-35.62-28.979-64.6-64.601-64.6-35.62 0-64.6 28.979-64.6 64.6s28.979 64.6 64.6 64.6c35.622-.001 64.601-28.98 64.601-64.6zm-35.845-27.866-42.711 38.761-14.519-14.52c-3.124-3.124-8.189-3.124-11.313-.001-3.125 3.124-3.125 8.189-.001 11.313l19.908 19.909c1.559 1.559 3.606 2.344 5.658 2.344 1.922 0 3.847-.688 5.375-2.076l48.354-43.883c3.272-2.969 3.518-8.028.548-11.3-2.967-3.271-8.028-3.515-11.299-.547z"/></svg>