<?xml version="1.0" encoding="UTF-8" standalone="no"?>
<!-- Created with Inkscape (http://www.inkscape.org/) -->

<svg
   version="1.1"
   id="svg3351"
   xml:space="preserve"
   width="682.66669"
   height="682.66669"
   viewBox="0 0 682.66669 682.66669"
   xmlns="http://www.w3.org/2000/svg"
   xmlns:svg="http://www.w3.org/2000/svg"><defs
     id="defs3355"><clipPath
       clipPathUnits="userSpaceOnUse"
       id="clipPath3369"><path
         d="M 0,512 H 512 V 0 H 0 Z"
         id="path3367" /></clipPath></defs><g
     id="g3357"
     transform="matrix(1.3333333,0,0,-1.3333333,0,682.66667)"><g
       id="g3359"
       transform="translate(324.0137,284.3564)"><path
         d="m 0,0 h -57.056 l 40.752,65.726 h -67.493 l -52.23,-104.233 h 46.533 l -17.485,-83.931 z"
         style="fill:none;stroke:#6DC535;stroke-width:20;stroke-linecap:round;stroke-linejoin:round;stroke-miterlimit:10;stroke-dasharray:none;stroke-opacity:1"
         id="path3361" /></g><g
       id="g3363"><g
         id="g3365"
         clip-path="url(#clipPath3369)"><g
           id="g3371"
           transform="translate(399.3447,215.5762)"><path
             d="m 0,0 c -17.615,-62.591 -75.122,-108.474 -143.345,-108.474 -82.234,0 -148.897,66.663 -148.897,148.898 0,82.234 66.663,148.897 148.897,148.897 68.168,0 125.637,-45.808 143.303,-108.321 M 5.553,40.424 v 0 m 75,44.164 -25.36,3.016 c -5.079,21.453 -13.545,41.592 -24.801,59.83 l 15.811,20.081 c 7.855,9.975 7.009,24.249 -1.969,33.227 l -27.26,27.261 c -8.979,8.977 -23.252,9.823 -33.228,1.969 L -36.335,214.16 c -18.237,11.257 -38.377,19.723 -59.829,24.802 l -3.017,25.359 c -1.5,12.609 -12.191,22.103 -24.887,22.103 h -38.553 c -12.696,0 -23.388,-9.494 -24.888,-22.103 l -3.015,-25.359 c -21.454,-5.079 -41.593,-13.545 -59.83,-24.802 l -20.082,15.812 c -9.975,7.854 -24.249,7.008 -33.227,-1.969 l -27.261,-27.261 c -8.977,-8.978 -9.823,-23.252 -1.969,-33.227 l 15.813,-20.081 c -11.258,-18.238 -19.724,-38.377 -24.802,-59.83 l -25.36,-3.016 c -12.609,-1.5 -22.103,-12.192 -22.103,-24.888 V 21.147 c 0,-12.696 9.494,-23.387 22.103,-24.887 l 25.36,-3.017 c 5.078,-21.452 13.544,-41.592 24.802,-59.829 l -15.813,-20.081 c -7.854,-9.976 -7.008,-24.249 1.969,-33.228 l 27.261,-27.259 c 8.978,-8.979 23.252,-9.825 33.227,-1.97 l 20.082,15.812 c 18.237,-11.257 38.376,-19.723 59.83,-24.802 l 3.015,-25.36 c 1.5,-12.608 12.192,-22.102 24.888,-22.102 h 38.553 c 12.696,0 23.387,9.494 24.887,22.102 l 3.017,25.36 c 21.452,5.079 41.592,13.545 59.829,24.802 l 20.081,-15.812 c 9.976,-7.855 24.249,-7.009 33.228,1.97 l 27.26,27.259 c 8.978,8.979 9.824,23.252 1.969,33.228 l -15.811,20.081 c 11.256,18.237 19.722,38.377 24.801,59.829 l 25.36,3.017 c 12.608,1.5 22.102,12.191 22.102,24.887 V 59.7 c 0,12.696 -9.494,23.388 -22.102,24.888 z"
             style="fill:none;stroke:#6DC535;stroke-width:20;stroke-linecap:round;stroke-linejoin:round;stroke-miterlimit:10;stroke-dasharray:none;stroke-opacity:1"
             id="path3373" /></g></g></g></g></svg>
