<svg fill="#6DC535" clip-rule="evenodd" fill-rule="evenodd" height="512" image-rendering="optimizeQuality" shape-rendering="geometricPrecision" text-rendering="geometricPrecision" viewBox="0 0 512 512" width="512" xmlns="http://www.w3.org/2000/svg" xmlns:xodm="http://www.corel.com/coreldraw/odm/2003"><g id="Layer_x0020_1"><g id="_1923002535136"><g><g id="_194005664"><path d="m467.6 278.95c-1.55 0-3.09-.6-4.24-1.75-.34-.34-34.76-34.21-72.9-34.21-21.87 0-41.04 11.26-56.98 33.46-1.15 1.61-3.02 2.54-4.99 2.5-1.98-.04-3.81-1.05-4.89-2.69-15.13-22.95-40.4-36.65-67.6-36.65s-52.47 13.7-67.6 36.65c-1.09 1.64-2.91 2.65-4.89 2.69-1.98.05-3.84-.89-4.99-2.5-15.94-22.2-35.11-33.45-56.98-33.45-38.14 0-72.56 33.86-72.9 34.2-1.84 1.83-4.64 2.28-6.95 1.11-2.32-1.18-3.61-3.7-3.22-6.26 10.09-65.96 37.73-120.9 79.93-158.86 38.2-34.38 87.07-53.31 137.6-53.31s99.4 18.93 137.6 53.31c42.2 37.96 69.84 92.9 79.93 158.86.39 2.56-.9 5.09-3.22 6.26-.86.43-1.79.64-2.71.64zm-346.06-47.95c23.64 0 44.37 10.73 61.72 31.92 17.63-22.25 44.26-35.31 72.74-35.31s55.11 13.06 72.74 35.31c17.36-21.19 38.08-31.92 61.72-31.92 28.2 0 53.63 15.44 68.31 26.57-26.19-128.11-119.25-185.69-202.77-185.69s-176.58 57.58-202.77 185.69c14.68-11.13 40.11-26.57 68.31-26.57z"/></g><g id="_194008304"><path d="m232.11 511.98c-16.47 0-29.88-13.4-29.88-29.88 0-3.31 2.69-6 6-6s6 2.69 6 6c0 9.86 8.02 17.89 17.88 17.89 9.87 0 17.89-8.03 17.89-17.89v-41.73c0-3.31 2.69-6 6-6s6 2.69 6 6v41.73c0 16.48-13.41 29.88-29.89 29.88zm23.89-109.7c-3.31 0-6-2.68-6-6v-162.67c0-3.31 2.69-6 6-6s6 2.69 6 6v162.67c0 3.32-2.69 6-6 6z"/></g><g id="_194007032"><path d="m269.48 446.37h-26.96c-3.32 0-6-2.69-6-6v-44.09c0-3.31 2.68-6 6-6h26.96c3.32 0 6 2.69 6 6v44.09c0 3.31-2.68 6-6 6zm-20.96-12h14.96v-32.09h-14.96z"/></g><g id="_194005904"><path d="m266.08 72.16c-.1 0-.2-.01-.31-.01-5.67-.29-11.44-.33-17.13-.11-1.63.07-3.22-.54-4.4-1.67-1.17-1.13-1.83-2.69-1.83-4.32v-31.51c0-15.93 3.88-34.53 14.83-34.53s14.84 18.6 14.84 34.53v31.62c0 1.64-.67 3.21-1.87 4.35-1.11 1.06-2.59 1.65-4.13 1.65zm-10.04-12.26c1.34 0 2.69.02 4.04.04v-25.4c0-9.21-1.45-16.1-2.84-19.9-1.39 3.8-2.83 10.69-2.83 19.9v25.37c.54-.01 1.08-.01 1.63-.01z"/></g><g id="_194003264"><path d="m183.39 278.95c-2.75 0-5.22-1.89-5.85-4.68-.34-1.51-8.31-37.64-3.25-82.09 6.77-59.45 33.97-104.91 78.65-131.46 2.84-1.69 6.52-.76 8.22 2.09 1.69 2.85.75 6.53-2.1 8.22-41.83 24.87-66.32 65.97-72.8 122.16-4.91 42.5 2.91 78.09 2.99 78.45.72 3.23-1.31 6.44-4.54 7.17-.45.1-.89.14-1.32.14z"/></g><g id="_194003792"><path d="m328.61 278.96c-.44 0-.88-.05-1.32-.15-3.23-.73-5.26-3.94-4.54-7.17.08-.35 7.89-35.95 2.99-78.45-6.48-56.19-30.98-97.29-72.81-122.16-2.85-1.69-3.78-5.37-2.09-8.22s5.37-3.78 8.22-2.09c44.68 26.55 71.87 72.01 78.64 131.46 5.07 44.45-2.9 80.58-3.24 82.09-.63 2.79-3.11 4.69-5.85 4.69z"/></g></g></g></g></svg>