<svg fill="#6DC535" id="Icons" height="512" viewBox="0 0 60 60" width="512" xmlns="http://www.w3.org/2000/svg"><path d="m30 0a30 30 0 1 0 15.212 55.856l8.819 2.4a3.439 3.439 0 0 0 4.225-4.225l-2.4-8.819a30 30 0 0 0 -25.856-45.212zm23.814 45.326 2.513 9.233a1.439 1.439 0 0 1 -1.769 1.766l-9.233-2.513a.992.992 0 0 0 -.783.112 28 28 0 1 1 9.383-9.383 1 1 0 0 0 -.111.785z"/><path d="m21 36a1 1 0 0 0 0-2h-4.457a10.521 10.521 0 0 1 1.635-1.072c1.703-.984 3.822-2.207 3.822-4.928a4 4 0 0 0 -8 0 1 1 0 0 0 2 0 2 2 0 0 1 4 0c0 1.461-1.066 2.182-2.822 3.2-1.49.856-3.178 1.83-3.178 3.8a1 1 0 0 0 1 1z"/><path d="m40 25a1 1 0 0 0 1 1h3.382l-4.282 8.553a1 1 0 0 0 1.79.894l5-10a1 1 0 0 0 -.89-1.447h-5a1 1 0 0 0 -1 1z"/><path d="m29 36a1 1 0 0 0 1-1v-2h1a1 1 0 0 0 0-2h-1v-1a1 1 0 0 0 -2 0v1h-2.276l3.144-5.5a1 1 0 1 0 -1.736-.992l-4 7a1 1 0 0 0 .868 1.492h4v2a1 1 0 0 0 1 1z"/><path d="m36.03 23.758-3 12a1 1 0 0 0 .728 1.212 1.017 1.017 0 0 0 .242.03 1 1 0 0 0 .969-.758l3-12a1 1 0 1 0 -1.94-.484z"/><path d="m47.289 18.054a1 1 0 0 0 -.315 1.378 19.99 19.99 0 0 1 -29.055 26.5l2.124-.132a1 1 0 1 0 -.125-2l-4.591.286a1 1 0 0 0 -.935 1.061l.286 4.59a1 1 0 0 0 1 .938h.063a1 1 0 0 0 .936-1.061l-.139-2.235a21.986 21.986 0 0 0 32.129-29.01 1 1 0 0 0 -1.378-.315z"/><path d="m10 30a19.988 19.988 0 0 1 32.081-15.927l-2.124.132a1 1 0 0 0 .062 2h.063l4.591-.286a1 1 0 0 0 .935-1.061l-.286-4.59a.985.985 0 0 0 -1.06-.936 1 1 0 0 0 -.936 1.061l.139 2.235a21.986 21.986 0 0 0 -32.132 29.003 1 1 0 0 0 .848.469.984.984 0 0 0 .53-.154 1 1 0 0 0 .315-1.378 19.868 19.868 0 0 1 -3.026-10.568z"/></svg>