<svg fill="#6DC535" clip-rule="evenodd" fill-rule="evenodd" height="173.397mm" image-rendering="optimizeQuality" shape-rendering="geometricPrecision" text-rendering="geometricPrecision" viewBox="0 0 173.397 173.397" width="173.397mm" xmlns="http://www.w3.org/2000/svg"><g id="Layer_x0020_1"><g id="_447370136"><path id="_447372200" d="m111.596 128.832h-49.7941c-.9838 0-1.7821-.7981-1.7821-1.782.0001-.9837.7983-1.782 1.782-1.782h49.7942c.9835 0 1.7817.7983 1.7817 1.782.0003.9839-.7982 1.782-1.7817 1.782z"/><path id="_447372224" d="m111.596 139.37h-49.7941c-.9838 0-1.7821-.795-1.7821-1.782.0001-.9837.7983-1.782 1.782-1.782h49.7942c.9835 0 1.7817.7983 1.7817 1.782.0003.987-.7982 1.782-1.7817 1.782z"/><path id="_447371360" d="m86.6509 26.4479c-12.0253 0-23.3426 4.4984-32.1072 12.8113-9.405 8.9193-14.5839 20.9693-14.5839 33.9291 0 13.2536 5.6615 25.9319 15.5337 34.7799 5.142 4.6067 8.0901 11.1468 8.0901 17.95l.0001 14.7478c0 3.1309 2.5461 5.6802 5.6801 5.6802h34.9036c3.1126 0 5.6461-2.5493 5.6461-5.6801l.0003-15.1717c0-6.6207 2.7748-12.8484 7.6103-17.0807 10.5501-9.1977 16.3722-22.5224 15.9793-36.5557-.6805-24.1654-20.0878-44.0828-44.1819-45.342-.8599-.0434-1.717-.0681-2.5706-.0681zm17.5165 123.462h-34.9035c-5.0986 0-9.2443-4.1487-9.2443-9.2441l.0001-14.7479c0-5.7915-2.5184-11.3634-6.9053-15.2955-10.6267-9.5226-16.7186-23.1691-16.7186-37.4344 0-13.9498 5.5718-26.9187 15.6946-36.5155 10.1043-9.5844 23.3577-14.4571 37.3199-13.7146 25.9318 1.355 46.8238 22.7886 47.5539 48.8008.4239 15.1005-5.844 29.4402-17.195 39.3401-4.062 3.5547-6.3917 8.8018-6.3917 14.3953l.0003 15.1716c0 5.0985-4.1304 9.2442-9.2104 9.2442z"/><path id="_447371312" d="m86.6972 164.516c-9.0339 0-16.3877-7.3507-16.3877-16.3875 0-.9838.7981-1.782 1.782-1.782.9838 0 1.782.7982 1.782 1.782 0 7.0722 5.7544 12.8236 12.8235 12.8236 7.0725 0 12.8267-5.7513 12.8267-12.8236 0-.9838.7951-1.782 1.7819-1.782.9841 0 1.782.7982 1.782 1.782.0001 9.0368-7.3537 16.3875-16.3904 16.3875z"/><path id="_447371192" d="m86.6972 17.8566c-.984 0-1.7822-.7981-1.7822-1.782l.0002-5.411c0-.9838.798-1.782 1.7818-1.782.9872 0 1.782.7982 1.782 1.782l.0002 5.4109c0 .984-.7952 1.7821-1.782 1.7821z"/><path id="_447370808" d="m108.555 22.2064c-.2291 0-.4643-.0463-.687-.1392-.9096-.3805-1.3365-1.4232-.956-2.3327l2.0853-4.9872c.3804-.9064 1.4231-1.3332 2.3326-.9559.9067.3805 1.3365 1.4262.956 2.3328l-2.0882 4.987c-.2847.6837-.9469 1.0953-1.6427 1.0952z"/><path id="_447371048" d="m127.086 34.5845c-.4577 0-.9189-.1764-1.2654-.529-.6927-.6993-.6869-1.8285.0093-2.5214l3.858-3.8177c.6992-.693 1.8252-.6868 2.5181.0124.6934.6991.6869 1.8253-.0123 2.5183l-3.8548 3.8207c-.3463.3434-.8013.5167-1.2529.5167z"/><path id="_447370976" d="m139.498 53.116c-.6992 0-1.3646-.4175-1.6462-1.1044-.3742-.9127.0588-1.9521.9684-2.3265l4.9873-2.0512c.9095-.3743 1.9521.0588 2.3263.9684.3746.9127-.0619 1.9521-.9715 2.3265l-4.987 2.0511c-.2196.0928-.4517.1362-.6773.1361z"/><path id="_447370856" d="m144.485 98.9499c-.2287 0-.4641-.0464-.6869-.1391l-4.987-2.0884c-.9064-.3774-1.3366-1.423-.956-2.3295.3807-.9096 1.4231-1.3365 2.3326-.956l4.9843 2.0851c.9094.3806 1.3362 1.4233.9557 2.3328-.2843.6837-.9467 1.0952-1.6427 1.0951z"/><path id="_447371000" d="m64.843 22.2064c-.6961 0-1.3584-.4114-1.643-1.0952l-2.0881-4.987c-.3807-.9066.0493-1.9522.9558-2.3328.9098-.3774 1.9522.0495 2.3327.956l2.0854 4.9871c.3804.9095-.0467 1.9522-.9562 2.3327-.2226.0929-.4579.1393-.6866.1392z"/><path id="_447370736" d="m46.3112 34.5845c-.4545 0-.9064-.1733-1.256-.5166l-3.8547-3.8208c-.696-.6931-.7024-1.8191-.0094-2.5183.693-.6993 1.8191-.7054 2.5183-.0124l3.8548 3.8176c.6993.693.7054 1.8223.0124 2.5215-.3496.3526-.8075.529-1.2654.529z"/><path id="_447371432" d="m33.8961 53.116c-.2259 0-.4549-.0433-.6776-.136l-4.9838-2.0512c-.9129-.3744-1.346-1.4138-.9717-2.3265.3745-.9097 1.417-1.3427 2.3266-.9683l4.9873 2.0511c.9094.3744 1.3424 1.4139.9681 2.3265-.2815.6869-.9467 1.1045-1.6489 1.1044z"/><path id="_447371072" d="m149.259 75.0074h-5.4111c-.9836 0-1.7821-.7981-1.7821-1.782.0001-.987.7982-1.782 1.782-1.782h5.4112c.9839 0 1.7818.7951 1.7818 1.782.0002.9839-.7981 1.782-1.7818 1.782z"/><path id="_447370496" d="m29.5493 75.0074h-5.4107c-.987 0-1.7823-.7981-1.7823-1.782.0003-.987.7952-1.782 1.782-1.782h5.411c.984 0 1.7789.7951 1.7789 1.782 0 .9839-.7951 1.782-1.7789 1.782z"/><path id="_447370232" d="m28.912 98.9499c-.696 0-1.3581-.4114-1.6459-1.0951-.3773-.9096.0495-1.9522.956-2.3328l4.9873-2.0851c.9094-.3805 1.952.0464 2.3325.956.3809.9064-.0495 1.9521-.956 2.3296l-4.9868 2.0883c-.2259.0927-.4582.1392-.6871.1391z"/><path id="_447370160" d="m72.4102 88.196h-12.7308c-.9836 0-1.7821-.7981-1.7821-1.7819l.0001-26.3804c0-.9839.7981-1.782 1.7819-1.782.984 0 1.782.7982 1.782 1.782l.0001 24.5983h10.9488c.984 0 1.7819.7983 1.7819 1.7821.0001.9838-.7982 1.782-1.7819 1.7819z"/><path id="_447370016" d="m94.8679 88.196h-12.7308c-.9839 0-1.7822-.7981-1.7822-1.7819l.0002-26.3804c0-.9839.7979-1.782 1.7818-1.782h12.731c.9836 0 1.7817.7982 1.7817 1.782.0003.9838-.7982 1.782-1.782 1.782h-10.9485v22.8163h10.9488c.9836 0 1.7817.7983 1.7817 1.7821.0003.9838-.7982 1.782-1.7817 1.7819z"/><path id="_447370448" d="m106.339 84.632h.9776c5.9401 0 10.7724-4.8323 10.7724-10.7724v-1.2715c0-5.9401-4.8324-10.7724-10.7724-10.7724h-.9776zm.9776 3.564h-2.7596c-.9836 0-1.782-.7981-1.782-1.7819v-26.3804c0-.9839.7981-1.782 1.782-1.782h2.7596c7.9048 0 14.3364 6.4289 14.3364 14.3365v1.2714c0 7.9076-6.4319 14.3365-14.3364 14.3364z"/><path id="_447370712" d="m94.8679 75.0074h-12.7308c-.9839 0-1.7822-.7981-1.7822-1.782.0002-.987.7981-1.782 1.782-1.782h12.731c.9836 0 1.7817.7951 1.7817 1.782.0003.9839-.7982 1.782-1.7817 1.782z"/></g></g></svg>