<svg fill="#6DC535" id="Layer_1" enable-background="new 0 0 64 64" viewBox="0 0 64 64" xmlns="http://www.w3.org/2000/svg"><g><path d="m43.9 14.4h-.8l-2.6-5.7c-.6-1.3-1.6-2.4-2.7-3v-1.2c0-1.8-1.3-3.3-2.9-3.3h-5.8c-1.6 0-2.9 1.5-2.9 3.3v.9c-1.6.7-3 2.2-3.6 4l-1.7 5h-.8c-1.2 0-2.2 1-2.2 2.2v1.1c0 1.2 1 2.2 2.2 2.2h.4l1 5.7c.5 2.8 1.9 5.3 3.9 7-.8.1-1.5.9-1.5 1.9v2.5c0 1 .8 1.9 1.7 1.9h.6v19.1c0 2.6 2 4.7 4.5 4.7h2.5c2.5 0 4.5-2.1 4.5-4.7v-19h.6c1 0 1.7-.9 1.7-1.9v-2.5c0-.9-.6-1.7-1.5-1.9 2-1.7 3.5-4.2 3.9-7l1-5.7h.3c1.2 0 2.2-1 2.2-2.2v-1.1c.3-1.3-.7-2.3-2-2.3zm-15.6-9.9c0-.7.4-1.3.9-1.3h5.8c.5 0 .9.6.9 1.3v.4c-.4-.1-.8-.1-1.1-.1h-5.9c-.2 0-.3 0-.5 0v-.3zm-3.7 5.6c.7-1.9 2.4-3.2 4.2-3.2h5.9c1.7 0 3.2 1.1 4 2.7l2.2 4.8h-17.8zm-1.1 15.2-.9-5.3h6.6v12.6c-2.9-1.2-5.1-3.9-5.7-7.3zm9.7 7.7c-.7.1-1.4.1-2 0v-13h2zm2.7 25.1c0 1.5-1.1 2.7-2.5 2.7h-2.5c-1.4 0-2.5-1.2-2.5-2.7v-19.1h7.5zm2.3-23.5v2.3h-12.2v-2.3h3.1c.3.1.6.2.9.2.7.2 1.4.2 2.2.2s1.6-.1 2.3-.3c.2-.1.5-.1.7-.2h3zm2.5-9.3c-.6 3.3-2.7 6-5.5 7.2v-12.5h6.4zm3.5-7.6c0 .1-.1.2-.2.2h-23.8c-.1 0-.2-.1-.2-.2v-1.1c0-.1.1-.2.2-.2h1.4.2.1.1 21.9c.1 0 .2.1.2.2v1.1z"/><path d="m10.5 6c-.4-.4-1-.4-1.4 0s-.4 1 0 1.4l4.8 4.8c.2.2.5.3.7.3s.5-.1.7-.3c.4-.4.4-1 0-1.4z"/><path d="m13.9 22.2-4.8 4.8c-.4.4-.4 1 0 1.4.2.2.5.3.7.3s.5-.1.7-.3l4.8-4.8c.4-.4.4-1 0-1.4s-1.1-.4-1.4 0z"/><path d="m14.6 16h-6.8c-.6 0-1 .4-1 1s.4 1 1 1h6.7c.6 0 1-.4 1-1s-.4-1-.9-1z"/><path d="m50.1 22.2c-.4-.4-1-.4-1.4 0s-.4 1 0 1.4l4.8 4.8c.2.2.5.3.7.3s.5-.1.7-.3c.4-.4.4-1 0-1.4z"/><path d="m49.4 12.5c.3 0 .5-.1.7-.3l4.8-4.8c.4-.4.4-1 0-1.4s-1-.4-1.4 0l-4.8 4.8c-.4.4-.4 1 0 1.4.2.2.5.3.7.3z"/><path d="m56.2 16.4h-6.7c-.6 0-1 .4-1 1s.4 1 1 1h6.7c.6 0 1-.4 1-1s-.5-1-1-1z"/></g></svg>