<svg fill="#6DC535" height="512" viewBox="0 0 512 512" width="512" xmlns="http://www.w3.org/2000/svg"><g id="Outline"><path d="m48 264h16v16h-16z"/><path d="m448 264h16v16h-16z"/><path d="m248 208h16v16h-16z"/><path d="m422.886 106.3c-44.703-16.962-103.971-26.3-166.886-26.3s-122.183 9.338-166.886 26.3c-47.148 17.879-73.114 42.634-73.114 69.7v96c0 34 40.111 63.583 110.049 81.165l3.9-15.518c-60.417-15.188-97.949-40.342-97.949-65.647 0-19.655 22.886-39.609 62.789-54.745 42.935-16.286 100.187-25.255 161.211-25.255s118.276 8.969 161.211 25.255c39.903 15.136 62.789 35.09 62.789 54.745 0 25.305-37.532 50.459-97.951 65.647l3.9 15.518c69.94-17.582 110.051-47.165 110.051-81.165v-96c0-27.066-25.966-51.821-73.114-69.7zm0 96c-44.703-16.962-103.971-26.3-166.886-26.3s-122.183 9.338-166.886 26.3c-25.3 9.595-44.485 21.17-56.847 34.016 2.661-18.443 25.113-36.867 62.522-51.056 42.935-16.291 100.187-25.26 161.211-25.26s118.276 8.969 161.211 25.255c37.409 14.189 59.861 32.613 62.522 51.056-12.362-12.846-31.551-24.421-56.847-34.011zm0-32c-44.703-16.962-103.971-26.3-166.886-26.3s-122.183 9.338-166.886 26.3c-25.482 9.66-44.762 21.336-57.114 34.3v-28.6c0-19.655 22.886-39.609 62.789-54.745 42.935-16.286 100.187-25.255 161.211-25.255s118.276 8.969 161.211 25.255c39.903 15.136 62.789 35.09 62.789 54.745v28.6c-12.352-12.964-31.632-24.64-57.114-34.3z"/><path d="m388.725 304.439a23.849 23.849 0 0 0 -.121-21.715c-8.583-16.318-31.14-26.271-48.551-31.747-23.636-7.434-53.487-11.529-84.053-11.529s-60.417 4.095-84.053 11.529c-17.411 5.476-39.968 15.429-48.551 31.747a23.849 23.849 0 0 0 -.121 21.715l44.839 89.678c1.156 10.789 11.165 20.252 28.48 26.82 15.994 6.067 37.092 9.408 59.406 9.408s43.412-3.341 59.406-9.408c17.315-6.568 27.324-16.031 28.48-26.82zm-251.168-14.266c8.854-16.834 53.375-34.725 118.443-34.725s109.589 17.891 118.443 34.725a7.812 7.812 0 0 1 -.029 7.11l-38.773 77.547c-4.808-4.511-11.616-8.5-20.235-11.767-15.994-6.063-37.092-9.408-59.406-9.408s-43.412 3.341-59.406 9.408c-8.619 3.27-15.427 7.256-20.235 11.767l-38.773-77.547a7.812 7.812 0 0 1 -.029-7.11zm172.174 115.8c-14.226 5.4-33.308 8.368-53.731 8.368s-39.5-2.972-53.731-8.368c-12.62-4.783-18.269-10.465-18.269-13.973s5.649-9.19 18.269-13.977c14.226-5.4 33.308-8.368 53.731-8.368s39.5 2.972 53.731 8.368c12.62 4.787 18.269 10.469 18.269 13.977s-5.649 9.19-18.269 13.977z"/><path d="m248 280h16v48h-16z"/><path d="m269.669 302h48.662v16h-48.662z" transform="matrix(.164 -.986 .986 .164 -60.123 549.025)"/><path d="m303.94 314.804h48.598v16h-48.598z" transform="matrix(.298 -.955 .955 .298 -77.682 539.995)"/><path d="m210 285.669h16v48.662h-16z" transform="matrix(.986 -.164 .164 .986 -47.998 40.057)"/><path d="m175.761 298.505h16v48.598h-16z" transform="matrix(.955 -.298 .298 .955 -87.823 69.402)"/><path d="m248 384h16v16h-16z"/></g></svg>