<svg fill="#6DC535" id="Layer_1" enable-background="new 0 0 512 512" viewBox="0 0 512 512" xmlns="http://www.w3.org/2000/svg"><path clip-rule="evenodd" d="m393.53 311.14c-.06-1.93-.86-3.71-2.24-5.01-2.89-2.71-7.44-2.57-10.15.32l-35.04 37.29c-1.09 1.16-2.6 1.84-4.19 1.89-1.59.06-3.14-.53-4.3-1.63l-12.46-11.71c-1.33-1.25-3.07-1.93-4.91-1.93-.08 0-.15 0-.23 0-1.93.06-3.71.86-5.01 2.24-2.71 2.89-2.57 7.44.32 10.15l22.07 20.74c2.88 2.7 7.44 2.56 10.16-.33l44.06-46.89c1.29-1.38 1.98-3.2 1.92-5.13zm5.97-13.76c3.72 3.5 5.86 8.25 6.02 13.38s-1.68 10.01-5.18 13.73l-44.06 46.9c-3.78 4.01-8.88 6.03-14 6.03-4.71 0-9.43-1.72-13.12-5.19l-22.07-20.73c-7.71-7.24-8.09-19.41-.84-27.12 3.5-3.72 8.25-5.86 13.38-6.02 5.12-.16 10.01 1.68 13.73 5.18l8.09 7.6 30.93-32.92c7.25-7.7 19.41-8.08 27.12-.84zm59.99 31.88c.01 1.1-.37 1.89-1.23 2.58l-4.13 3.27c-7.13 5.63-8.79 15.64-3.87 23.27l2.85 4.43c.6.92.7 1.8.33 2.84-.36 1.03-.99 1.65-2.04 2l-5 1.66c-8.62 2.85-13.61 11.69-11.6 20.54l1.16 5.14c.25 1.07.04 1.93-.66 2.78s-1.51 1.22-2.6 1.18l-5.27-.15c-9.07-.26-16.79 6.33-17.93 15.34l-.66 5.23c-.14 1.09-.62 1.83-1.57 2.38-.95.56-1.82.63-2.85.22l-4.9-1.94c-8.44-3.35-17.94.21-22.09 8.28l-2.41 4.69c-.5.98-1.21 1.5-2.29 1.7s-1.93-.03-2.75-.76l-3.93-3.5c-6.78-6.04-16.93-5.94-23.59.23l-3.87 3.58c-.81.75-1.65 1-2.74.82-1.08-.18-1.8-.69-2.32-1.66l-2.5-4.64c-3.16-5.86-9.14-9.24-15.41-9.24-2.28 0-4.6.45-6.83 1.38l-8.72 3.66-1.37-9.35c-1.32-8.98-9.14-15.42-18.22-14.99l-5.26.26c-1.1.06-1.91-.3-2.62-1.13-.71-.84-.93-1.69-.71-2.76l1.07-5.16c1.84-8.89-3.32-17.63-11.99-20.31l-5.03-1.56c-1.05-.33-1.69-.93-2.08-1.96s-.3-1.9.28-2.84l2.77-4.48c4.77-7.73 2.91-17.7-4.32-23.19l-4.2-3.19c-.88-.67-1.27-1.45-1.28-2.55s.37-1.89 1.23-2.58l4.13-3.27c7.12-5.63 8.79-15.63 3.87-23.27l-2.85-4.43c-.6-.93-.7-1.8-.33-2.84s1-1.65 2.04-2l5-1.66c8.62-2.86 13.61-11.69 11.6-20.55l-1.17-5.14c-.24-1.07-.04-1.93.66-2.78s1.52-1.22 2.6-1.18l5.27.15c9.09.25 16.78-6.33 17.93-15.34l.66-5.23c.14-1.09.62-1.83 1.57-2.38.95-.56 1.82-.63 2.85-.22l4.9 1.94c8.44 3.36 17.94-.2 22.09-8.28l2.41-4.68c.5-.98 1.21-1.5 2.29-1.71 1.08-.2 1.93.04 2.75.77l3.94 3.5c6.79 6.04 16.93 5.94 23.59-.23l3.87-3.58c.81-.75 1.65-1 2.73-.82 1.09.18 1.8.69 2.32 1.66l2.5 4.63c4.31 7.99 13.87 11.37 22.25 7.86l4.86-2.04c1.01-.42 1.89-.37 2.85.17s1.46 1.27 1.61 2.36l.76 5.21c1.32 8.99 9.14 15.42 18.22 14.99l5.26-.26c1.11-.06 1.91.29 2.62 1.13.71.83.93 1.69.71 2.76l-1.07 5.16c-1.84 8.89 3.32 17.63 11.99 20.32l5.03 1.56c1.05.33 1.69.93 2.07 1.96.39 1.03.3 1.91-.27 2.84l-2.77 4.48c-4.77 7.73-2.91 17.7 4.32 23.19l4.19 3.19c.89.66 1.28 1.44 1.3 2.54zm-14.78 129.62-20.51-47.4c-1.49.84-2.56 2.34-2.79 4.16l-.66 5.23c-.61 4.78-3.23 8.76-7.37 11.21-4.15 2.45-8.9 2.82-13.38 1.04l-4.9-1.94c-2.67-1.06-5.67.07-6.99 2.62l-2.41 4.69c-1.06 2.05-2.49 3.76-4.21 5.1l15.65 36.16 14.15-24.93c1.34-2.36 4.09-3.53 6.72-2.85zm-119.17-16.34c-.99-1.01-1.86-2.16-2.56-3.47l-2.5-4.64c-1.36-2.53-4.39-3.6-7.04-2.49l-15.85 6.66c-1.71.71-3.65.6-5.27-.31s-2.72-2.52-2.99-4.35l-2.49-17.01c-.37-2.51-2.34-4.39-4.78-4.7l-20.18 46.64 26.7-6.92c2.63-.68 5.38.49 6.72 2.85l14.15 24.93zm-251.95-34.88h190.4c-.16-.18-.34-.34-.5-.52-3.13-3.66-4.32-8.28-3.35-13l.48-2.3h-173.48c-10.15 0-18.41-8.26-18.41-18.41v-295.81c0-10.15 8.26-18.41 18.41-18.41h51.09v-7.75c0-2.87.62-5.59 1.7-8.06h-66.34c-11.71 0-21.24 9.53-21.24 21.24v321.77c0 11.72 9.53 21.25 21.24 21.25zm84.69-364.26h17.8c2.21 0 4.25-1.22 5.29-3.17 3.65-6.83 10.72-11.07 18.45-11.07s14.8 4.24 18.45 11.07c1.04 1.95 3.08 3.17 5.29 3.17h17.8c4.44 0 8.06 3.61 8.06 8.06v27.55c0 4.45-3.62 8.06-8.06 8.06h-83.07c-4.44 0-8.06-3.61-8.06-8.06v-27.55c0-4.45 3.61-8.06 8.05-8.06zm103.75 211.79c-3.06 3.72-4.16 8.36-3.1 13.06l1.16 5.14c.64 2.8-.94 5.6-3.67 6.5l-5 1.66c-1.22.4-2.35.95-3.39 1.6-.08 0-.16-.01-.24-.01h-62.49c-3.31 0-6 2.69-6 6s2.69 6 6 6h55.7c-.21 3.18.59 6.32 2.4 9.14l2.85 4.43c1.56 2.42 1.03 5.59-1.23 7.37l-4.13 3.27c-3.78 2.99-5.84 7.29-5.79 12.11.04 4.82 2.18 9.07 6.02 11.99l4.19 3.18c2.29 1.74 2.88 4.9 1.37 7.34l-2.77 4.48c-2.53 4.1-2.99 8.84-1.3 13.35 1.34 3.57 3.79 6.34 7.03 8.06h-162.5c-3.53 0-6.41-2.87-6.41-6.41v-295.83c0-3.54 2.87-6.41 6.41-6.41h51.09v7.79c0 11.06 9 20.06 20.06 20.06h83.07c11.06 0 20.06-9 20.06-20.06v-7.79h51.09c3.53 0 6.41 2.87 6.41 6.41v148.32l-.44.85c-1.31 2.55-4.32 3.68-6.99 2.62l-4.9-1.95c-4.48-1.78-9.23-1.41-13.38 1.04s-6.77 6.43-7.37 11.21l-.66 5.23c-.36 2.85-2.82 4.94-5.67 4.85l-5.27-.15c-4.8-.14-9.15 1.84-12.21 5.55zm64.02-211.79c11.71 0 21.24 9.53 21.24 21.24v155.48l-2.72-2.42c-3.6-3.21-8.19-4.48-12.93-3.6-.25.05-.49.12-.74.18v-136.66c0-10.15-8.26-18.41-18.41-18.41h-51.09v-7.75c0-2.87-.62-5.59-1.7-8.06zm145.44 285.74c.04 4.82-2.01 9.12-5.79 12.1l-4.13 3.27c-2.25 1.78-2.78 4.94-1.22 7.36l2.85 4.43c2.61 4.05 3.16 8.78 1.56 13.33-1.6 4.54-5.01 7.88-9.58 9.4l-5 1.66c-2.73.9-4.31 3.7-3.67 6.5l1.16 5.14c1.07 4.7-.03 9.33-3.1 13.05-2.07 2.52-4.75 4.22-7.75 5.02l23.79 54.98c.91 2.1.54 4.54-.95 6.28s-3.85 2.48-6.06 1.91l-34.14-8.85-17.82 31.4c-1.07 1.88-3.07 3.03-5.22 3.03-.11 0-.22 0-.33-.01-2.27-.12-4.28-1.52-5.18-3.61l-21.19-48.97c-2.82-.44-5.45-1.69-7.7-3.69l-3.94-3.5c-2.15-1.91-5.36-1.88-7.46.07l-3.87 3.58c-2.85 2.63-6.36 4.03-10.1 4.06l-20.97 48.45c-.9 2.09-2.91 3.48-5.18 3.61-.11.01-.22.01-.33.01-2.15 0-4.15-1.15-5.22-3.03l-17.82-31.4-34.13 8.85c-2.22.58-4.57-.16-6.06-1.91-1.49-1.74-1.86-4.18-.95-6.28l19.79-45.73h-192.19c-18.33 0-33.24-14.91-33.24-33.24v-321.77c0-18.33 14.91-33.24 33.24-33.24h99.13c6.1-8.86 16.18-14.24 27.1-14.24s21 5.37 27.1 14.24h99.13c18.33 0 33.24 14.91 33.24 33.24v153.41l.55-.5c3.53-3.27 8.1-4.64 12.85-3.85s8.63 3.56 10.91 7.8l2.5 4.64c1.36 2.53 4.39 3.59 7.04 2.48l4.86-2.04c4.44-1.87 9.2-1.59 13.39.78 4.2 2.37 6.89 6.3 7.59 11.07l.76 5.21c.42 2.84 2.89 4.87 5.77 4.74l5.26-.25c4.82-.23 9.19 1.65 12.32 5.31s4.32 8.28 3.34 12.99l-1.07 5.16c-.58 2.82 1.05 5.58 3.8 6.43l5.03 1.56c4.6 1.43 8.07 4.7 9.76 9.21s1.23 9.26-1.3 13.36l-2.76 4.48c-1.51 2.45-.92 5.6 1.37 7.34l4.19 3.19c3.85 2.91 5.99 7.17 6.04 11.98zm-50.89 1.15c0 37.11-30.19 67.3-67.3 67.3s-67.3-30.19-67.3-67.3 30.19-67.3 67.3-67.3 67.3 30.19 67.3 67.3zm11.99 0c0 43.73-35.57 79.29-79.3 79.29s-79.3-35.57-79.3-79.29c0-43.73 35.57-79.3 79.3-79.3s79.3 35.57 79.3 79.3zm-247.29-6.98c-3.31 0-6-2.69-6-6s2.69-6 6-6h42.63c3.31 0 6 2.69 6 6s-2.69 6-6 6zm-32.94-40.27v40.36c0 1.21-1.02 2.23-2.23 2.23h-40.36c-1.21 0-2.23-1.02-2.23-2.23v-40.36c0-1.21 1.02-2.23 2.23-2.23h40.36c1.21 0 2.23 1.02 2.23 2.23zm12 0v40.36c0 7.85-6.38 14.23-14.23 14.23h-40.36c-7.85 0-14.23-6.38-14.23-14.23v-40.36c0-7.85 6.38-14.23 14.23-14.23h40.36c7.85 0 14.23 6.38 14.23 14.23zm63.57-56.34c3.31 0 6 2.69 6 6 0 3.32-2.69 6-6 6h-42.63c-3.31 0-6-2.69-6-6s2.69-6 6-6zm55.46-16.18h14.24c3.31 0 6-2.69 6-6s-2.69-6-6-6h-14.24c-3.31 0-6 2.69-6 6s2.69 6 6 6zm-26.79-12c3.31 0 6 2.69 6 6s-2.69 6-6 6h-71.3c-3.31 0-6-2.69-6-6s2.69-6 6-6zm-104.24-.09v40.36c0 1.21-1.02 2.23-2.23 2.23h-40.36c-1.21 0-2.23-1.02-2.23-2.23v-40.36c0-1.21 1.02-2.23 2.23-2.23h40.36c1.21 0 2.23 1.02 2.23 2.23zm12 0v40.36c0 7.85-6.38 14.23-14.23 14.23h-40.36c-7.85 0-14.23-6.39-14.23-14.23v-40.36c0-7.85 6.38-14.23 14.23-14.23h40.36c7.85 0 14.23 6.38 14.23 14.23zm1.01-55.56c-.59 0-1.09-.5-1.09-1.09v-13.9c0-.59.5-1.09 1.09-1.09h68.9c.59 0 1.09.5 1.09 1.09v13.9c0 .59-.5 1.09-1.09 1.09zm68.9 11.99h-68.9c-7.22 0-13.09-5.87-13.09-13.09v-13.9c0-7.22 5.87-13.09 13.09-13.09h68.9c7.22 0 13.09 5.87 13.09 13.09v13.9c0 7.23-5.87 13.09-13.09 13.09zm-44.14-103.55c0-3.31 2.69-6 6-6h7.38c3.31 0 6 2.69 6 6 0 3.32-2.69 6-6 6h-7.38c-3.31 0-6-2.68-6-6z" fill-rule="evenodd"/></svg>