<svg fill="#6DC535" height="512" viewBox="0 0 512 512" width="512" xmlns="http://www.w3.org/2000/svg"><g id="outline"><path d="m152 128h112a8 8 0 0 0 8-8v-63.618a8 8 0 0 0 -8-8h-112a8 8 0 0 0 -8 8v63.618a8 8 0 0 0 8 8zm8-63.618h96v47.618h-96z"/><path d="m208 239.809a24 24 0 1 0 24 24 24.027 24.027 0 0 0 -24-24zm0 32a8 8 0 1 1 8-8 8.009 8.009 0 0 1 -8 8z"/><path d="m208 175.809a24 24 0 1 0 24 24 24.027 24.027 0 0 0 -24-24zm0 32a8 8 0 1 1 8-8 8.009 8.009 0 0 1 -8 8z"/><path d="m208.222 144h-.228a56 56 0 0 0 -55.994 56v63.618a56.11 56.11 0 0 0 55.778 56h.228a56 56 0 0 0 55.994-56v-63.618a56.111 56.111 0 0 0 -55.778-56zm39.778 119.618a40 40 0 0 1 -40 40h-.163a40.079 40.079 0 0 1 -39.841-40v-63.618a40 40 0 0 1 40-40h.164a40.079 40.079 0 0 1 39.84 40z"/><circle cx="400" cy="86" r="5"/><circle cx="400" cy="104" r="5"/><circle cx="400" cy="120" r="5"/><circle cx="400" cy="136" r="5"/><circle cx="381" cy="94" r="5"/><circle cx="381" cy="110" r="5"/><circle cx="381" cy="126" r="5"/><circle cx="419" cy="94" r="5"/><circle cx="419" cy="110" r="5"/><circle cx="419" cy="126" r="5"/><path d="m240 404a92 92 0 0 0 184 0v-155.683l6.335-79.978a64 64 0 1 0 -60.67 0l6.335 79.978v155.683a44 44 0 0 1 -88 0v-45.187a40.067 40.067 0 0 0 32-39.195v-263.618a40.045 40.045 0 0 0 -40-40h-144a40.045 40.045 0 0 0 -40 40v263.618a40.045 40.045 0 0 0 40 40v128.382a8 8 0 0 0 8 8h32a8 8 0 0 0 8-8v-128.382h56zm168-148v15.985l-16-.03v-15.955zm-56-144a48 48 0 1 1 48 48 48.055 48.055 0 0 1 -48-48zm48 64a63.969 63.969 0 0 0 13.8-1.514l-5.189 65.5-17.221-.033-5.19-65.467a63.969 63.969 0 0 0 13.8 1.514zm-68 288a60.068 60.068 0 0 0 60-60v-116h16v116a76 76 0 0 1 -152 0v-12h16v12a60.068 60.068 0 0 0 60 60zm-220-144.382v-263.618a24.027 24.027 0 0 1 24-24h144a24.027 24.027 0 0 1 24 24v263.618a24.027 24.027 0 0 1 -24 24h-144a24.027 24.027 0 0 1 -24-24zm56 160.382h-16v-88h16zm0-104h-16v-16.382h16zm104-16.382v16.382h-16v-16.382z"/></g></svg>